<svg id="Layer_1" data-name="Layer 1" xmlns="http://www.w3.org/2000/svg" width="50.6" height="100" viewBox="0 0 50.6 100"><title>rocket</title><path d="M46.2,73.8l-7.3-12a57.4,57.4,0,0,0,2.4-15,13.4,13.4,0,0,0-.1-2c-.7-13.4-5.9-18.2-9.8-22.1A17.9,17.9,0,0,1,27.2,17h-.1a3.8,3.8,0,0,0,1.7-.5,2.5,2.5,0,0,0,1.1-2.1l-.2-.4c-.4-.4-1.3-.5-2.8-.6a11.3,11.3,0,0,1,0-2.6c.1-.5.1-.5.8-.5h.1a.8.8,0,0,0,.8-.5,1.7,1.7,0,0,0-.3-1.4h-.1V7.8a17.8,17.8,0,0,1-1.5-5.4c0-1.2-.3-1.6-.6-1.7h-.6c-.2.1-.6.3-.6,1.7s-.3,2.2-1.6,5.5h-.1v.2a1.5,1.5,0,0,0-.4,1c0,.2,0,.3.1.4a.8.8,0,0,0,.8.5h.1c.7,0,.7,0,.7.5a10,10,0,0,1,.2,1.6c0,.3-.1.7-.1,1s-2.5.2-2.8.6l-.2.4a2.5,2.5,0,0,0,1.1,2.1,3.8,3.8,0,0,0,1.6.5v.2a19.8,19.8,0,0,1-4.5,5.7c-3.8,3.8-9,8.6-9.7,22a13.4,13.4,0,0,0-.1,2,57.4,57.4,0,0,0,2.4,15L5,73.8.6,99.4h5l4.6-16.3,7.9-6.5h.3l.8.3c.2.8.3,1.6.4,2.2s.3,1.4,3.9,1.6V99.4h4.2V80.8c3.8-.2,4-1.2,4.1-1.6s.2-1.4.4-2.2l.8-.3h.2L41,83.1l4.6,16.3h5Z" fill="#b4fff4"/></svg>